<mxfile host="app.diagrams.net" modified="2023-08-05T22:58:16.615Z" agent="Mozilla/5.0 (Windows NT 10.0; Win64; x64) AppleWebKit/537.36 (KHTML, like Gecko) Chrome/114.0.0.0 Safari/537.36" version="21.6.6" etag="GApDHyXBmZozoDI8-xMU" type="github">
  <diagram id="a8VKY27_yZoFmaz0b4fs" name="Page-1">
    <mxGraphModel dx="1434" dy="796" grid="1" gridSize="10" guides="1" tooltips="1" connect="1" arrows="1" fold="1" page="1" pageScale="1" pageWidth="850" pageHeight="1100" math="0" shadow="0">
      <root>
        <mxCell id="0" />
        <mxCell id="1" parent="0" />
        <mxCell id="Zkci0tf9PSk8_MOkVYrh-1" value="" style="ellipse;html=1;shape=startState;fillColor=#000000;strokeColor=#ff0000;" vertex="1" parent="1">
          <mxGeometry x="410" width="30" height="30" as="geometry" />
        </mxCell>
        <mxCell id="Zkci0tf9PSk8_MOkVYrh-2" value="" style="edgeStyle=orthogonalEdgeStyle;html=1;verticalAlign=bottom;endArrow=open;endSize=8;strokeColor=#ff0000;rounded=0;" edge="1" parent="1" source="Zkci0tf9PSk8_MOkVYrh-1">
          <mxGeometry relative="1" as="geometry">
            <mxPoint x="425" y="80" as="targetPoint" />
          </mxGeometry>
        </mxCell>
        <mxCell id="Zkci0tf9PSk8_MOkVYrh-3" value="POWER OUTAGE" style="rounded=1;whiteSpace=wrap;html=1;arcSize=40;fontColor=#000000;fillColor=#ffffc0;strokeColor=#ff0000;" vertex="1" parent="1">
          <mxGeometry x="365" y="80" width="120" height="40" as="geometry" />
        </mxCell>
        <mxCell id="Zkci0tf9PSk8_MOkVYrh-4" value="" style="edgeStyle=orthogonalEdgeStyle;html=1;verticalAlign=bottom;endArrow=open;endSize=8;strokeColor=#ff0000;rounded=0;" edge="1" parent="1" source="Zkci0tf9PSk8_MOkVYrh-3">
          <mxGeometry relative="1" as="geometry">
            <mxPoint x="425" y="160" as="targetPoint" />
          </mxGeometry>
        </mxCell>
        <mxCell id="Zkci0tf9PSk8_MOkVYrh-5" value="Situation Context" style="rounded=1;whiteSpace=wrap;html=1;arcSize=40;fontColor=#000000;fillColor=#ffffc0;strokeColor=#ff0000;" vertex="1" parent="1">
          <mxGeometry x="5" y="20" width="120" height="40" as="geometry" />
        </mxCell>
        <mxCell id="Zkci0tf9PSk8_MOkVYrh-6" value="" style="edgeStyle=orthogonalEdgeStyle;html=1;verticalAlign=bottom;endArrow=open;endSize=8;strokeColor=#ff0000;rounded=0;" edge="1" parent="1">
          <mxGeometry relative="1" as="geometry">
            <mxPoint x="64.5" y="240" as="targetPoint" />
            <mxPoint x="65" y="180" as="sourcePoint" />
          </mxGeometry>
        </mxCell>
        <mxCell id="Zkci0tf9PSk8_MOkVYrh-7" value="Flow" style="edgeLabel;html=1;align=center;verticalAlign=middle;resizable=0;points=[];" vertex="1" connectable="0" parent="Zkci0tf9PSk8_MOkVYrh-6">
          <mxGeometry x="-0.3333" y="3" relative="1" as="geometry">
            <mxPoint x="-2" y="10" as="offset" />
          </mxGeometry>
        </mxCell>
        <mxCell id="Zkci0tf9PSk8_MOkVYrh-8" value="Start Point" style="ellipse;html=1;shape=startState;fillColor=#000000;strokeColor=#ff0000;" vertex="1" parent="1">
          <mxGeometry x="50" y="250" width="30" height="30" as="geometry" />
        </mxCell>
        <mxCell id="Zkci0tf9PSk8_MOkVYrh-9" value="End Point" style="ellipse;html=1;shape=endState;fillColor=#000000;strokeColor=#ff0000;" vertex="1" parent="1">
          <mxGeometry x="50" y="290" width="30" height="30" as="geometry" />
        </mxCell>
        <mxCell id="Zkci0tf9PSk8_MOkVYrh-10" value="STEPS" style="shape=umlFrame;whiteSpace=wrap;html=1;pointerEvents=0;" vertex="1" parent="1">
          <mxGeometry y="70" width="130" height="90" as="geometry" />
        </mxCell>
        <mxCell id="Zkci0tf9PSk8_MOkVYrh-11" value="STEP 1" style="shape=umlFrame;whiteSpace=wrap;html=1;pointerEvents=0;" vertex="1" parent="1">
          <mxGeometry x="260" y="160" width="330" height="80" as="geometry" />
        </mxCell>
        <mxCell id="Zkci0tf9PSk8_MOkVYrh-12" value="LEAVE ALL TASKS AND HEAD TO CACF ROOM TO&amp;nbsp;&lt;br&gt;ACKNOWLEDGE ALARM" style="text;html=1;align=center;verticalAlign=middle;resizable=0;points=[];autosize=1;strokeColor=none;fillColor=none;" vertex="1" parent="1">
          <mxGeometry x="270" y="190" width="310" height="40" as="geometry" />
        </mxCell>
        <mxCell id="Zkci0tf9PSk8_MOkVYrh-13" value="STEP 2" style="shape=umlFrame;whiteSpace=wrap;html=1;pointerEvents=0;" vertex="1" parent="1">
          <mxGeometry x="230" y="270" width="390" height="60" as="geometry" />
        </mxCell>
        <mxCell id="Zkci0tf9PSk8_MOkVYrh-15" value="" style="edgeStyle=orthogonalEdgeStyle;html=1;verticalAlign=bottom;endArrow=open;endSize=8;strokeColor=#ff0000;rounded=0;" edge="1" parent="1">
          <mxGeometry relative="1" as="geometry">
            <mxPoint x="425" y="270" as="targetPoint" />
            <mxPoint x="425" y="240" as="sourcePoint" />
          </mxGeometry>
        </mxCell>
        <mxCell id="Zkci0tf9PSk8_MOkVYrh-18" value="" style="edgeStyle=orthogonalEdgeStyle;html=1;verticalAlign=bottom;endArrow=open;endSize=8;strokeColor=#ff0000;rounded=0;" edge="1" parent="1">
          <mxGeometry relative="1" as="geometry">
            <mxPoint x="424" y="370" as="targetPoint" />
            <mxPoint x="424" y="330" as="sourcePoint" />
          </mxGeometry>
        </mxCell>
        <mxCell id="Zkci0tf9PSk8_MOkVYrh-22" value="Condition" style="rhombus;whiteSpace=wrap;html=1;fontColor=#000000;fillColor=#ffffc0;strokeColor=#ff0000;" vertex="1" parent="1">
          <mxGeometry x="600" y="750" width="80" height="40" as="geometry" />
        </mxCell>
        <mxCell id="Zkci0tf9PSk8_MOkVYrh-23" value="" style="edgeStyle=orthogonalEdgeStyle;html=1;align=left;verticalAlign=bottom;endArrow=open;endSize=8;strokeColor=#ff0000;rounded=0;entryX=0.519;entryY=0.025;entryDx=0;entryDy=0;entryPerimeter=0;" edge="1" parent="1" source="Zkci0tf9PSk8_MOkVYrh-22" target="Zkci0tf9PSk8_MOkVYrh-59">
          <mxGeometry x="-0.0476" y="20" relative="1" as="geometry">
            <mxPoint x="780" y="770" as="targetPoint" />
            <Array as="points">
              <mxPoint x="750" y="770" />
              <mxPoint x="750" y="836" />
              <mxPoint x="749" y="836" />
            </Array>
            <mxPoint as="offset" />
          </mxGeometry>
        </mxCell>
        <mxCell id="Zkci0tf9PSk8_MOkVYrh-24" value="" style="edgeStyle=orthogonalEdgeStyle;html=1;align=left;verticalAlign=top;endArrow=open;endSize=8;strokeColor=#ff0000;rounded=0;exitX=0;exitY=0.5;exitDx=0;exitDy=0;" edge="1" parent="1" source="Zkci0tf9PSk8_MOkVYrh-22" target="Zkci0tf9PSk8_MOkVYrh-51">
          <mxGeometry x="0.2" y="60" relative="1" as="geometry">
            <mxPoint x="530" y="840" as="targetPoint" />
            <mxPoint x="641" y="790" as="sourcePoint" />
            <Array as="points">
              <mxPoint x="430" y="770" />
              <mxPoint x="430" y="590" />
            </Array>
            <mxPoint as="offset" />
          </mxGeometry>
        </mxCell>
        <mxCell id="Zkci0tf9PSk8_MOkVYrh-25" value="YES" style="text;html=1;align=center;verticalAlign=middle;resizable=0;points=[];autosize=1;strokeColor=none;fillColor=none;" vertex="1" parent="1">
          <mxGeometry x="680" y="740" width="50" height="30" as="geometry" />
        </mxCell>
        <mxCell id="Zkci0tf9PSk8_MOkVYrh-26" value="DISCLAIMER" style="swimlane;fontStyle=0;childLayout=stackLayout;horizontal=1;startSize=26;fillColor=#e51400;horizontalStack=0;resizeParent=1;resizeParentMax=0;resizeLast=0;collapsible=1;marginBottom=0;whiteSpace=wrap;html=1;fontColor=#ffffff;strokeColor=#B20000;" vertex="1" parent="1">
          <mxGeometry x="650" y="20" width="190" height="170" as="geometry" />
        </mxCell>
        <mxCell id="Zkci0tf9PSk8_MOkVYrh-27" value="THIS MODULE IS DESIGNED TO TEST AND REFINE YOUR DECISION MAKING. &lt;br&gt;&lt;br&gt;THE MODULE USES GENERAL PROCEDURES, REFER TO YOUR RESPECTIVE BUILDING PROTOCOLS AND ADHERE TO THEM DURING DUTY" style="text;strokeColor=#B20000;fillColor=#e51400;align=center;verticalAlign=top;spacingLeft=4;spacingRight=4;overflow=hidden;rotatable=0;points=[[0,0.5],[1,0.5]];portConstraint=eastwest;whiteSpace=wrap;html=1;fontColor=#ffffff;" vertex="1" parent="Zkci0tf9PSk8_MOkVYrh-26">
          <mxGeometry y="26" width="190" height="144" as="geometry" />
        </mxCell>
        <mxCell id="Zkci0tf9PSk8_MOkVYrh-29" value="" style="shape=line;html=1;strokeWidth=6;strokeColor=#ff0000;" vertex="1" parent="1">
          <mxGeometry x="8" y="450" width="122" height="10" as="geometry" />
        </mxCell>
        <mxCell id="Zkci0tf9PSk8_MOkVYrh-30" value="" style="edgeStyle=orthogonalEdgeStyle;html=1;verticalAlign=bottom;endArrow=open;endSize=8;strokeColor=#ff0000;rounded=0;" edge="1" parent="1" source="Zkci0tf9PSk8_MOkVYrh-29">
          <mxGeometry relative="1" as="geometry">
            <mxPoint x="70" y="520" as="targetPoint" />
            <Array as="points">
              <mxPoint x="69" y="510" />
              <mxPoint x="70" y="510" />
            </Array>
          </mxGeometry>
        </mxCell>
        <mxCell id="Zkci0tf9PSk8_MOkVYrh-31" value="Fork" style="text;html=1;align=center;verticalAlign=middle;resizable=0;points=[];autosize=1;strokeColor=none;fillColor=none;" vertex="1" parent="1">
          <mxGeometry x="45" y="430" width="50" height="30" as="geometry" />
        </mxCell>
        <mxCell id="Zkci0tf9PSk8_MOkVYrh-38" value="" style="edgeStyle=orthogonalEdgeStyle;html=1;verticalAlign=bottom;endArrow=open;endSize=8;strokeColor=#ff0000;rounded=0;" edge="1" parent="1" target="Zkci0tf9PSk8_MOkVYrh-39">
          <mxGeometry relative="1" as="geometry">
            <mxPoint x="195" y="2080" as="targetPoint" />
            <mxPoint x="194.9999999999999" y="2010" as="sourcePoint" />
          </mxGeometry>
        </mxCell>
        <mxCell id="Zkci0tf9PSk8_MOkVYrh-39" value="" style="ellipse;html=1;shape=endState;fillColor=#000000;strokeColor=#ff0000;" vertex="1" parent="1">
          <mxGeometry x="180" y="2065" width="30" height="30" as="geometry" />
        </mxCell>
        <mxCell id="Zkci0tf9PSk8_MOkVYrh-40" value="MAKE A DETAILED INCIDENT REPORT WITH TIME STAMPS &lt;br&gt;OF EVERY STEP." style="text;html=1;align=center;verticalAlign=middle;resizable=0;points=[];autosize=1;strokeColor=none;fillColor=none;" vertex="1" parent="1">
          <mxGeometry x="15" y="1970" width="360" height="40" as="geometry" />
        </mxCell>
        <mxCell id="Zkci0tf9PSk8_MOkVYrh-41" value="STEP 8" style="shape=umlFrame;whiteSpace=wrap;html=1;pointerEvents=0;" vertex="1" parent="1">
          <mxGeometry x="15" y="1940" width="360" height="70" as="geometry" />
        </mxCell>
        <mxCell id="Zkci0tf9PSk8_MOkVYrh-42" value="MAKE SURE ELEVATORS ARE GROUNDED" style="text;html=1;align=center;verticalAlign=middle;resizable=0;points=[];autosize=1;strokeColor=none;fillColor=none;" vertex="1" parent="1">
          <mxGeometry x="295" y="290" width="270" height="30" as="geometry" />
        </mxCell>
        <mxCell id="Zkci0tf9PSk8_MOkVYrh-43" value="Condition" style="rhombus;whiteSpace=wrap;html=1;fontColor=#000000;fillColor=#ffffc0;strokeColor=#ff0000;" vertex="1" parent="1">
          <mxGeometry x="385" y="370" width="80" height="40" as="geometry" />
        </mxCell>
        <mxCell id="Zkci0tf9PSk8_MOkVYrh-44" value="" style="edgeStyle=orthogonalEdgeStyle;html=1;align=left;verticalAlign=bottom;endArrow=open;endSize=8;strokeColor=#ff0000;rounded=0;entryX=0.351;entryY=-0.033;entryDx=0;entryDy=0;entryPerimeter=0;exitX=1;exitY=0.5;exitDx=0;exitDy=0;" edge="1" parent="1" source="Zkci0tf9PSk8_MOkVYrh-43" target="Zkci0tf9PSk8_MOkVYrh-53">
          <mxGeometry x="-0.5676" relative="1" as="geometry">
            <mxPoint x="650" y="560" as="targetPoint" />
            <mxPoint x="474.75" y="388.98" as="sourcePoint" />
            <Array as="points">
              <mxPoint x="465" y="389" />
              <mxPoint x="583" y="389" />
            </Array>
            <mxPoint as="offset" />
          </mxGeometry>
        </mxCell>
        <mxCell id="Zkci0tf9PSk8_MOkVYrh-45" value="" style="edgeStyle=orthogonalEdgeStyle;html=1;align=left;verticalAlign=top;endArrow=open;endSize=8;strokeColor=#ff0000;rounded=0;entryX=0.709;entryY=-0.033;entryDx=0;entryDy=0;entryPerimeter=0;" edge="1" parent="1" target="Zkci0tf9PSk8_MOkVYrh-51">
          <mxGeometry x="0.2" y="60" relative="1" as="geometry">
            <mxPoint x="230" y="510" as="targetPoint" />
            <mxPoint x="385" y="390" as="sourcePoint" />
            <Array as="points">
              <mxPoint x="278" y="390" />
            </Array>
            <mxPoint as="offset" />
          </mxGeometry>
        </mxCell>
        <mxCell id="Zkci0tf9PSk8_MOkVYrh-46" value="GROUNDED" style="text;html=1;align=center;verticalAlign=middle;resizable=0;points=[];autosize=1;strokeColor=none;fillColor=none;" vertex="1" parent="1">
          <mxGeometry x="275" y="360" width="90" height="30" as="geometry" />
        </mxCell>
        <mxCell id="Zkci0tf9PSk8_MOkVYrh-51" value="STEP 3" style="shape=umlFrame;whiteSpace=wrap;html=1;pointerEvents=0;" vertex="1" parent="1">
          <mxGeometry x="30" y="560" width="350" height="60" as="geometry" />
        </mxCell>
        <mxCell id="Zkci0tf9PSk8_MOkVYrh-52" value="CONTACT AREA HYDRO COMPANY AND INQUIRE&amp;nbsp;&lt;br&gt;IF OUTAGE IS BUILDING SPECIFIC OR AREA WIDE" style="text;html=1;align=center;verticalAlign=middle;resizable=0;points=[];autosize=1;strokeColor=none;fillColor=none;" vertex="1" parent="1">
          <mxGeometry x="75" y="580" width="310" height="40" as="geometry" />
        </mxCell>
        <mxCell id="Zkci0tf9PSk8_MOkVYrh-53" value="ALT STEP 1" style="shape=umlFrame;whiteSpace=wrap;html=1;pointerEvents=0;" vertex="1" parent="1">
          <mxGeometry x="460" y="560" width="350" height="60" as="geometry" />
        </mxCell>
        <mxCell id="Zkci0tf9PSk8_MOkVYrh-54" value="TRY TO RESET ELEVATOR WHILE LOAD BACKUP&amp;nbsp;&lt;br&gt;POWER IS ON" style="text;html=1;align=center;verticalAlign=middle;resizable=0;points=[];autosize=1;strokeColor=none;fillColor=none;" vertex="1" parent="1">
          <mxGeometry x="510" y="580" width="310" height="40" as="geometry" />
        </mxCell>
        <mxCell id="Zkci0tf9PSk8_MOkVYrh-55" value="UNKNOWN/STUCK" style="text;html=1;align=center;verticalAlign=middle;resizable=0;points=[];autosize=1;strokeColor=none;fillColor=none;" vertex="1" parent="1">
          <mxGeometry x="480" y="360" width="130" height="30" as="geometry" />
        </mxCell>
        <mxCell id="Zkci0tf9PSk8_MOkVYrh-56" value="ALT STEP 2" style="shape=umlFrame;whiteSpace=wrap;html=1;pointerEvents=0;" vertex="1" parent="1">
          <mxGeometry x="460" y="670" width="350" height="60" as="geometry" />
        </mxCell>
        <mxCell id="Zkci0tf9PSk8_MOkVYrh-57" value="MAKE SURE NO PASSENGERS ARE STUCK" style="text;html=1;align=center;verticalAlign=middle;resizable=0;points=[];autosize=1;strokeColor=none;fillColor=none;" vertex="1" parent="1">
          <mxGeometry x="520" y="685" width="270" height="30" as="geometry" />
        </mxCell>
        <mxCell id="Zkci0tf9PSk8_MOkVYrh-59" value="ALT STEP 3" style="shape=umlFrame;whiteSpace=wrap;html=1;pointerEvents=0;" vertex="1" parent="1">
          <mxGeometry x="640" y="840" width="200" height="80" as="geometry" />
        </mxCell>
        <mxCell id="Zkci0tf9PSk8_MOkVYrh-60" value="&lt;font style=&quot;font-size: 12px;&quot;&gt;FOLLOW ELEVATOR ENTRAPMENT &lt;br&gt;PROCEDURE IF YES&lt;/font&gt;" style="text;html=1;align=center;verticalAlign=middle;resizable=0;points=[];autosize=1;strokeColor=none;fillColor=none;" vertex="1" parent="1">
          <mxGeometry x="630" y="870" width="230" height="40" as="geometry" />
        </mxCell>
        <mxCell id="Zkci0tf9PSk8_MOkVYrh-64" value="NO" style="text;html=1;align=center;verticalAlign=middle;resizable=0;points=[];autosize=1;strokeColor=none;fillColor=none;" vertex="1" parent="1">
          <mxGeometry x="540" y="740" width="40" height="30" as="geometry" />
        </mxCell>
        <mxCell id="Zkci0tf9PSk8_MOkVYrh-66" value="" style="edgeStyle=orthogonalEdgeStyle;html=1;align=left;verticalAlign=top;endArrow=open;endSize=8;strokeColor=#ff0000;rounded=0;exitX=0;exitY=0.225;exitDx=0;exitDy=0;exitPerimeter=0;" edge="1" parent="1" source="Zkci0tf9PSk8_MOkVYrh-59" target="Zkci0tf9PSk8_MOkVYrh-51">
          <mxGeometry x="0.2" y="60" relative="1" as="geometry">
            <mxPoint x="350" y="650" as="targetPoint" />
            <mxPoint x="590" y="880" as="sourcePoint" />
            <Array as="points">
              <mxPoint x="640" y="880" />
              <mxPoint x="370" y="880" />
            </Array>
            <mxPoint as="offset" />
          </mxGeometry>
        </mxCell>
        <mxCell id="Zkci0tf9PSk8_MOkVYrh-67" value="" style="edgeStyle=orthogonalEdgeStyle;html=1;verticalAlign=bottom;endArrow=open;endSize=8;strokeColor=#ff0000;rounded=0;entryX=0.511;entryY=-0.017;entryDx=0;entryDy=0;entryPerimeter=0;" edge="1" parent="1" target="Zkci0tf9PSk8_MOkVYrh-56">
          <mxGeometry relative="1" as="geometry">
            <mxPoint x="639.5" y="650" as="targetPoint" />
            <mxPoint x="639.5" y="620" as="sourcePoint" />
          </mxGeometry>
        </mxCell>
        <mxCell id="Zkci0tf9PSk8_MOkVYrh-72" value="" style="edgeStyle=orthogonalEdgeStyle;html=1;verticalAlign=bottom;endArrow=open;endSize=8;strokeColor=#ff0000;rounded=0;" edge="1" parent="1">
          <mxGeometry relative="1" as="geometry">
            <mxPoint x="640" y="750" as="targetPoint" />
            <mxPoint x="640" y="730" as="sourcePoint" />
          </mxGeometry>
        </mxCell>
        <mxCell id="Zkci0tf9PSk8_MOkVYrh-73" value="" style="edgeStyle=orthogonalEdgeStyle;html=1;verticalAlign=bottom;endArrow=open;endSize=8;strokeColor=#ff0000;rounded=0;" edge="1" parent="1">
          <mxGeometry relative="1" as="geometry">
            <mxPoint x="210" y="660" as="targetPoint" />
            <mxPoint x="210" y="620" as="sourcePoint" />
          </mxGeometry>
        </mxCell>
        <mxCell id="Zkci0tf9PSk8_MOkVYrh-74" value="Condition" style="rhombus;whiteSpace=wrap;html=1;fontColor=#000000;fillColor=#ffffc0;strokeColor=#ff0000;" vertex="1" parent="1">
          <mxGeometry x="70" y="370" width="80" height="40" as="geometry" />
        </mxCell>
        <mxCell id="Zkci0tf9PSk8_MOkVYrh-75" value="" style="edgeStyle=orthogonalEdgeStyle;html=1;align=left;verticalAlign=bottom;endArrow=open;endSize=8;strokeColor=#ff0000;rounded=0;" edge="1" parent="1" source="Zkci0tf9PSk8_MOkVYrh-74">
          <mxGeometry x="-0.2549" y="10" relative="1" as="geometry">
            <mxPoint x="210" y="390" as="targetPoint" />
            <mxPoint as="offset" />
          </mxGeometry>
        </mxCell>
        <mxCell id="Zkci0tf9PSk8_MOkVYrh-76" value="" style="edgeStyle=orthogonalEdgeStyle;html=1;align=left;verticalAlign=top;endArrow=open;endSize=8;strokeColor=#ff0000;rounded=0;" edge="1" parent="1">
          <mxGeometry x="0.2" y="60" relative="1" as="geometry">
            <mxPoint x="10" y="390" as="targetPoint" />
            <mxPoint x="70" y="390" as="sourcePoint" />
            <Array as="points">
              <mxPoint x="70" y="390" />
              <mxPoint x="70" y="390" />
            </Array>
            <mxPoint as="offset" />
          </mxGeometry>
        </mxCell>
        <mxCell id="Zkci0tf9PSk8_MOkVYrh-77" value="YES" style="text;html=1;align=center;verticalAlign=middle;resizable=0;points=[];autosize=1;strokeColor=none;fillColor=none;" vertex="1" parent="1">
          <mxGeometry x="15" y="360" width="50" height="30" as="geometry" />
        </mxCell>
        <mxCell id="Zkci0tf9PSk8_MOkVYrh-78" value="NO" style="text;html=1;align=center;verticalAlign=middle;resizable=0;points=[];autosize=1;strokeColor=none;fillColor=none;" vertex="1" parent="1">
          <mxGeometry x="160" y="360" width="40" height="30" as="geometry" />
        </mxCell>
        <mxCell id="Zkci0tf9PSk8_MOkVYrh-79" value="Condition" style="rhombus;whiteSpace=wrap;html=1;fontColor=#000000;fillColor=#ffffc0;strokeColor=#ff0000;" vertex="1" parent="1">
          <mxGeometry x="170" y="660" width="80" height="40" as="geometry" />
        </mxCell>
        <mxCell id="Zkci0tf9PSk8_MOkVYrh-80" value="" style="edgeStyle=orthogonalEdgeStyle;html=1;align=left;verticalAlign=bottom;endArrow=open;endSize=8;strokeColor=#ff0000;rounded=0;entryX=0.714;entryY=-0.012;entryDx=0;entryDy=0;entryPerimeter=0;" edge="1" parent="1" source="Zkci0tf9PSk8_MOkVYrh-79" target="Zkci0tf9PSk8_MOkVYrh-88">
          <mxGeometry x="-0.2549" y="10" relative="1" as="geometry">
            <mxPoint x="320" y="680" as="targetPoint" />
            <mxPoint as="offset" />
            <Array as="points">
              <mxPoint x="320" y="680" />
            </Array>
          </mxGeometry>
        </mxCell>
        <mxCell id="Zkci0tf9PSk8_MOkVYrh-81" value="" style="edgeStyle=orthogonalEdgeStyle;html=1;align=left;verticalAlign=top;endArrow=open;endSize=8;strokeColor=#ff0000;rounded=0;entryX=0.5;entryY=-0.006;entryDx=0;entryDy=0;entryPerimeter=0;" edge="1" parent="1" target="Zkci0tf9PSk8_MOkVYrh-84">
          <mxGeometry x="0.2" y="60" relative="1" as="geometry">
            <mxPoint x="80" y="680" as="targetPoint" />
            <mxPoint x="170" y="680" as="sourcePoint" />
            <Array as="points">
              <mxPoint x="85" y="680" />
            </Array>
            <mxPoint as="offset" />
          </mxGeometry>
        </mxCell>
        <mxCell id="Zkci0tf9PSk8_MOkVYrh-82" value="Building Problem" style="text;html=1;align=center;verticalAlign=middle;resizable=0;points=[];autosize=1;strokeColor=none;fillColor=none;" vertex="1" parent="1">
          <mxGeometry x="55" y="655" width="110" height="30" as="geometry" />
        </mxCell>
        <mxCell id="Zkci0tf9PSk8_MOkVYrh-83" value="Area Wide Issue" style="text;html=1;align=center;verticalAlign=middle;resizable=0;points=[];autosize=1;strokeColor=none;fillColor=none;" vertex="1" parent="1">
          <mxGeometry x="250" y="655" width="110" height="30" as="geometry" />
        </mxCell>
        <mxCell id="Zkci0tf9PSk8_MOkVYrh-84" value="STEP 3A" style="shape=umlFrame;whiteSpace=wrap;html=1;pointerEvents=0;" vertex="1" parent="1">
          <mxGeometry x="15" y="730" width="140" height="170" as="geometry" />
        </mxCell>
        <mxCell id="Zkci0tf9PSk8_MOkVYrh-88" value="STEP 3B" style="shape=umlFrame;whiteSpace=wrap;html=1;pointerEvents=0;" vertex="1" parent="1">
          <mxGeometry x="220" y="730" width="140" height="170" as="geometry" />
        </mxCell>
        <mxCell id="Zkci0tf9PSk8_MOkVYrh-89" value="&lt;div&gt;CONTACT PROPERTY&lt;/div&gt;&lt;div&gt;&amp;nbsp;MANAGER&amp;nbsp;&lt;span style=&quot;background-color: initial;&quot;&gt;AND INFORM&amp;nbsp;&lt;/span&gt;&lt;/div&gt;&lt;div&gt;THEM ABOUT&amp;nbsp;&amp;nbsp;&lt;span style=&quot;background-color: initial;&quot;&gt;THE&amp;nbsp;&lt;/span&gt;&lt;/div&gt;&lt;div&gt;&lt;span style=&quot;background-color: initial;&quot;&gt;SITUATION.&amp;nbsp;&lt;/span&gt;&lt;/div&gt;&lt;div&gt;&lt;br&gt;&lt;/div&gt;&lt;div&gt;UPON APPROVAL, CALL&amp;nbsp;&lt;/div&gt;&lt;div&gt;BUILDING TECHNICIAN&amp;nbsp;&lt;/div&gt;&lt;div&gt;FOR&amp;nbsp;&amp;nbsp;&lt;span style=&quot;background-color: initial;&quot;&gt;SERVICE.&lt;/span&gt;&lt;/div&gt;" style="text;html=1;align=center;verticalAlign=middle;resizable=0;points=[];autosize=1;strokeColor=none;fillColor=none;" vertex="1" parent="1">
          <mxGeometry y="760" width="170" height="130" as="geometry" />
        </mxCell>
        <mxCell id="Zkci0tf9PSk8_MOkVYrh-90" value="&lt;div&gt;GET ETA OF SERVICING&amp;nbsp;&lt;/div&gt;&lt;div&gt;FROM&amp;nbsp;&lt;span style=&quot;background-color: initial;&quot;&gt;AREA HYDRO&amp;nbsp;&lt;/span&gt;&lt;/div&gt;&lt;div&gt;&lt;span style=&quot;background-color: initial;&quot;&gt;COMPANY.&lt;/span&gt;&lt;/div&gt;&lt;div&gt;&lt;br&gt;&lt;/div&gt;&lt;div&gt;CALL AND UPDATE&lt;/div&gt;&lt;div&gt;&amp;nbsp;PROPERTY&amp;nbsp;&lt;span style=&quot;background-color: initial;&quot;&gt;MANAGER&amp;nbsp;&amp;nbsp;&lt;/span&gt;&lt;/div&gt;" style="text;html=1;align=center;verticalAlign=middle;resizable=0;points=[];autosize=1;strokeColor=none;fillColor=none;" vertex="1" parent="1">
          <mxGeometry x="206" y="775" width="170" height="100" as="geometry" />
        </mxCell>
        <mxCell id="Zkci0tf9PSk8_MOkVYrh-94" value="" style="shape=line;html=1;strokeWidth=6;strokeColor=#ff0000;" vertex="1" parent="1">
          <mxGeometry x="119" y="970" width="122" height="10" as="geometry" />
        </mxCell>
        <mxCell id="Zkci0tf9PSk8_MOkVYrh-95" value="" style="edgeStyle=orthogonalEdgeStyle;html=1;verticalAlign=bottom;endArrow=open;endSize=8;strokeColor=#ff0000;rounded=0;" edge="1" parent="1" source="Zkci0tf9PSk8_MOkVYrh-94">
          <mxGeometry relative="1" as="geometry">
            <mxPoint x="181" y="1040" as="targetPoint" />
            <Array as="points">
              <mxPoint x="180" y="1030" />
              <mxPoint x="181" y="1030" />
            </Array>
          </mxGeometry>
        </mxCell>
        <mxCell id="Zkci0tf9PSk8_MOkVYrh-96" value="Fork" style="text;html=1;align=center;verticalAlign=middle;resizable=0;points=[];autosize=1;strokeColor=none;fillColor=none;" vertex="1" parent="1">
          <mxGeometry x="156" y="950" width="50" height="30" as="geometry" />
        </mxCell>
        <mxCell id="Zkci0tf9PSk8_MOkVYrh-97" value="" style="edgeStyle=orthogonalEdgeStyle;html=1;verticalAlign=bottom;endArrow=open;endSize=8;strokeColor=#ff0000;rounded=0;entryX=0.25;entryY=0.5;entryDx=0;entryDy=0;entryPerimeter=0;" edge="1" parent="1" target="Zkci0tf9PSk8_MOkVYrh-94">
          <mxGeometry relative="1" as="geometry">
            <mxPoint x="84.5" y="930" as="targetPoint" />
            <mxPoint x="84.5" y="900" as="sourcePoint" />
            <Array as="points">
              <mxPoint x="85" y="930" />
              <mxPoint x="150" y="930" />
            </Array>
          </mxGeometry>
        </mxCell>
        <mxCell id="Zkci0tf9PSk8_MOkVYrh-98" value="" style="edgeStyle=orthogonalEdgeStyle;html=1;verticalAlign=bottom;endArrow=open;endSize=8;strokeColor=#ff0000;rounded=0;entryX=0.75;entryY=0.5;entryDx=0;entryDy=0;entryPerimeter=0;" edge="1" parent="1" target="Zkci0tf9PSk8_MOkVYrh-94">
          <mxGeometry relative="1" as="geometry">
            <mxPoint x="289.5" y="930" as="targetPoint" />
            <mxPoint x="289.5" y="900" as="sourcePoint" />
            <Array as="points">
              <mxPoint x="290" y="930" />
              <mxPoint x="211" y="930" />
            </Array>
          </mxGeometry>
        </mxCell>
        <mxCell id="Zkci0tf9PSk8_MOkVYrh-99" value="STEP 4" style="shape=umlFrame;whiteSpace=wrap;html=1;pointerEvents=0;" vertex="1" parent="1">
          <mxGeometry x="100" y="1040" width="160" height="130" as="geometry" />
        </mxCell>
        <mxCell id="Zkci0tf9PSk8_MOkVYrh-100" value="&lt;div&gt;GO TO PENT HOUSE&lt;/div&gt;&lt;div&gt;MECHANICAL GENERATOR&lt;/div&gt;&lt;div&gt;ROOM AND CONFIRM&lt;/div&gt;&lt;div&gt;IF BACKUP GENERATOR&lt;/div&gt;&lt;div&gt;IS FUNCTIONAL.&lt;/div&gt;" style="text;html=1;align=center;verticalAlign=middle;resizable=0;points=[];autosize=1;strokeColor=none;fillColor=none;" vertex="1" parent="1">
          <mxGeometry x="91" y="1070" width="180" height="90" as="geometry" />
        </mxCell>
        <mxCell id="Zkci0tf9PSk8_MOkVYrh-106" value="Condition" style="rhombus;whiteSpace=wrap;html=1;fontColor=#000000;fillColor=#ffffc0;strokeColor=#ff0000;" vertex="1" parent="1">
          <mxGeometry x="181" y="1210" width="80" height="40" as="geometry" />
        </mxCell>
        <mxCell id="Zkci0tf9PSk8_MOkVYrh-107" value="" style="edgeStyle=orthogonalEdgeStyle;html=1;align=left;verticalAlign=bottom;endArrow=open;endSize=8;strokeColor=#ff0000;rounded=0;entryX=0.689;entryY=0;entryDx=0;entryDy=0;entryPerimeter=0;" edge="1" parent="1" source="Zkci0tf9PSk8_MOkVYrh-106" target="Zkci0tf9PSk8_MOkVYrh-113">
          <mxGeometry x="-0.2549" y="10" relative="1" as="geometry">
            <mxPoint x="360" y="1230" as="targetPoint" />
            <mxPoint as="offset" />
            <Array as="points">
              <mxPoint x="361" y="1230" />
            </Array>
          </mxGeometry>
        </mxCell>
        <mxCell id="Zkci0tf9PSk8_MOkVYrh-108" value="" style="edgeStyle=orthogonalEdgeStyle;html=1;align=left;verticalAlign=top;endArrow=open;endSize=8;strokeColor=#ff0000;rounded=0;entryX=0.321;entryY=0;entryDx=0;entryDy=0;entryPerimeter=0;" edge="1" parent="1" target="Zkci0tf9PSk8_MOkVYrh-115">
          <mxGeometry x="0.2" y="60" relative="1" as="geometry">
            <mxPoint x="90" y="1230" as="targetPoint" />
            <mxPoint x="181" y="1230" as="sourcePoint" />
            <Array as="points">
              <mxPoint x="81" y="1230" />
            </Array>
            <mxPoint as="offset" />
          </mxGeometry>
        </mxCell>
        <mxCell id="Zkci0tf9PSk8_MOkVYrh-109" value="Functional" style="text;html=1;align=center;verticalAlign=middle;resizable=0;points=[];autosize=1;strokeColor=none;fillColor=none;" vertex="1" parent="1">
          <mxGeometry x="95" y="1190" width="80" height="30" as="geometry" />
        </mxCell>
        <mxCell id="Zkci0tf9PSk8_MOkVYrh-110" value="Not Functional" style="text;html=1;align=center;verticalAlign=middle;resizable=0;points=[];autosize=1;strokeColor=none;fillColor=none;" vertex="1" parent="1">
          <mxGeometry x="270" y="1190" width="100" height="30" as="geometry" />
        </mxCell>
        <mxCell id="Zkci0tf9PSk8_MOkVYrh-111" value="" style="edgeStyle=orthogonalEdgeStyle;html=1;verticalAlign=bottom;endArrow=open;endSize=8;strokeColor=#ff0000;rounded=0;" edge="1" parent="1">
          <mxGeometry relative="1" as="geometry">
            <mxPoint x="220" y="1210" as="targetPoint" />
            <mxPoint x="220" y="1170" as="sourcePoint" />
          </mxGeometry>
        </mxCell>
        <mxCell id="Zkci0tf9PSk8_MOkVYrh-113" value="ALT STEP 4" style="shape=umlFrame;whiteSpace=wrap;html=1;pointerEvents=0;" vertex="1" parent="1">
          <mxGeometry x="230" y="1290" width="190" height="150" as="geometry" />
        </mxCell>
        <mxCell id="Zkci0tf9PSk8_MOkVYrh-114" value="&lt;span style=&quot;&quot;&gt;CALL AND UPDATE PROPERY &lt;br&gt;MANAGER ABOUT FAILED&amp;nbsp;&lt;br&gt;GENERATOR.&lt;br&gt;UPON APPROVAL, CALL THE&lt;br&gt;RESPECTIVE CONTRACTORS&amp;nbsp;&lt;br&gt;TO FIX THE BACKUP &lt;br&gt;GENERATOR.&lt;br&gt;&lt;/span&gt;" style="text;html=1;align=center;verticalAlign=middle;resizable=0;points=[];autosize=1;strokeColor=none;fillColor=none;" vertex="1" parent="1">
          <mxGeometry x="230" y="1325" width="200" height="110" as="geometry" />
        </mxCell>
        <mxCell id="Zkci0tf9PSk8_MOkVYrh-115" value="STEP 5" style="shape=umlFrame;whiteSpace=wrap;html=1;pointerEvents=0;" vertex="1" parent="1">
          <mxGeometry x="20" y="1290" width="190" height="80" as="geometry" />
        </mxCell>
        <mxCell id="Zkci0tf9PSk8_MOkVYrh-116" value="&lt;span style=&quot;&quot;&gt;STANDBY AND ASSIST ANY&lt;br&gt;RESIDENTS IN NEED&lt;br&gt;&lt;/span&gt;" style="text;html=1;align=center;verticalAlign=middle;resizable=0;points=[];autosize=1;strokeColor=none;fillColor=none;" vertex="1" parent="1">
          <mxGeometry x="20" y="1320" width="180" height="40" as="geometry" />
        </mxCell>
        <mxCell id="Zkci0tf9PSk8_MOkVYrh-117" value="STEP 5" style="shape=umlFrame;whiteSpace=wrap;html=1;pointerEvents=0;" vertex="1" parent="1">
          <mxGeometry x="230" y="1480" width="190" height="80" as="geometry" />
        </mxCell>
        <mxCell id="Zkci0tf9PSk8_MOkVYrh-118" value="&lt;span style=&quot;&quot;&gt;STANDBY AND ASSIST ANY&lt;br&gt;RESIDENTS IN NEED&lt;br&gt;&lt;/span&gt;" style="text;html=1;align=center;verticalAlign=middle;resizable=0;points=[];autosize=1;strokeColor=none;fillColor=none;" vertex="1" parent="1">
          <mxGeometry x="230" y="1510" width="180" height="40" as="geometry" />
        </mxCell>
        <mxCell id="Zkci0tf9PSk8_MOkVYrh-119" value="" style="edgeStyle=orthogonalEdgeStyle;html=1;verticalAlign=bottom;endArrow=open;endSize=8;strokeColor=#ff0000;rounded=0;" edge="1" parent="1">
          <mxGeometry relative="1" as="geometry">
            <mxPoint x="319.5" y="1480" as="targetPoint" />
            <mxPoint x="319.5" y="1440" as="sourcePoint" />
          </mxGeometry>
        </mxCell>
        <mxCell id="Zkci0tf9PSk8_MOkVYrh-124" value="" style="shape=line;html=1;strokeWidth=6;strokeColor=#ff0000;" vertex="1" parent="1">
          <mxGeometry x="125" y="1640" width="122" height="10" as="geometry" />
        </mxCell>
        <mxCell id="Zkci0tf9PSk8_MOkVYrh-125" value="" style="edgeStyle=orthogonalEdgeStyle;html=1;verticalAlign=bottom;endArrow=open;endSize=8;strokeColor=#ff0000;rounded=0;" edge="1" parent="1" source="Zkci0tf9PSk8_MOkVYrh-124">
          <mxGeometry relative="1" as="geometry">
            <mxPoint x="187" y="1710" as="targetPoint" />
            <Array as="points">
              <mxPoint x="186" y="1700" />
              <mxPoint x="187" y="1700" />
            </Array>
          </mxGeometry>
        </mxCell>
        <mxCell id="Zkci0tf9PSk8_MOkVYrh-126" value="Fork" style="text;html=1;align=center;verticalAlign=middle;resizable=0;points=[];autosize=1;strokeColor=none;fillColor=none;" vertex="1" parent="1">
          <mxGeometry x="162" y="1620" width="50" height="30" as="geometry" />
        </mxCell>
        <mxCell id="Zkci0tf9PSk8_MOkVYrh-127" value="" style="edgeStyle=orthogonalEdgeStyle;html=1;verticalAlign=bottom;endArrow=open;endSize=8;strokeColor=#ff0000;rounded=0;entryX=0.75;entryY=0.5;entryDx=0;entryDy=0;entryPerimeter=0;" edge="1" parent="1" target="Zkci0tf9PSk8_MOkVYrh-124">
          <mxGeometry relative="1" as="geometry">
            <mxPoint x="319.5" y="1600" as="targetPoint" />
            <mxPoint x="319.5" y="1560" as="sourcePoint" />
            <Array as="points">
              <mxPoint x="320" y="1600" />
              <mxPoint x="217" y="1600" />
            </Array>
          </mxGeometry>
        </mxCell>
        <mxCell id="Zkci0tf9PSk8_MOkVYrh-128" value="" style="edgeStyle=orthogonalEdgeStyle;html=1;verticalAlign=bottom;endArrow=open;endSize=8;strokeColor=#ff0000;rounded=0;entryX=0.25;entryY=0.5;entryDx=0;entryDy=0;entryPerimeter=0;" edge="1" parent="1" target="Zkci0tf9PSk8_MOkVYrh-124">
          <mxGeometry relative="1" as="geometry">
            <mxPoint x="109.5" y="1410" as="targetPoint" />
            <mxPoint x="109.5" y="1370" as="sourcePoint" />
            <Array as="points">
              <mxPoint x="110" y="1510" />
              <mxPoint x="156" y="1510" />
            </Array>
          </mxGeometry>
        </mxCell>
        <mxCell id="Zkci0tf9PSk8_MOkVYrh-131" value="STEP 6" style="shape=umlFrame;whiteSpace=wrap;html=1;pointerEvents=0;" vertex="1" parent="1">
          <mxGeometry x="15" y="1710" width="360" height="70" as="geometry" />
        </mxCell>
        <mxCell id="Zkci0tf9PSk8_MOkVYrh-132" value="UPON RESTORATION OF POWER IN THE BUILDING,&lt;br&gt;RESET FIRE PANEL." style="text;html=1;align=center;verticalAlign=middle;resizable=0;points=[];autosize=1;strokeColor=none;fillColor=none;" vertex="1" parent="1">
          <mxGeometry x="30" y="1740" width="320" height="40" as="geometry" />
        </mxCell>
        <mxCell id="Zkci0tf9PSk8_MOkVYrh-133" value="STEP 7" style="shape=umlFrame;whiteSpace=wrap;html=1;pointerEvents=0;" vertex="1" parent="1">
          <mxGeometry x="15" y="1820" width="360" height="70" as="geometry" />
        </mxCell>
        <mxCell id="Zkci0tf9PSk8_MOkVYrh-134" value="RESET ELEVATORS &amp;amp; MAGLOCKS IF ANY" style="text;html=1;align=center;verticalAlign=middle;resizable=0;points=[];autosize=1;strokeColor=none;fillColor=none;" vertex="1" parent="1">
          <mxGeometry x="60" y="1855" width="260" height="30" as="geometry" />
        </mxCell>
        <mxCell id="Zkci0tf9PSk8_MOkVYrh-138" value="" style="edgeStyle=orthogonalEdgeStyle;html=1;verticalAlign=bottom;endArrow=open;endSize=8;strokeColor=#ff0000;rounded=0;entryX=0.486;entryY=0;entryDx=0;entryDy=0;entryPerimeter=0;" edge="1" parent="1" target="Zkci0tf9PSk8_MOkVYrh-41">
          <mxGeometry relative="1" as="geometry">
            <mxPoint x="189.5" y="1930" as="targetPoint" />
            <mxPoint x="189.5" y="1890" as="sourcePoint" />
          </mxGeometry>
        </mxCell>
        <mxCell id="Zkci0tf9PSk8_MOkVYrh-139" value="" style="edgeStyle=orthogonalEdgeStyle;html=1;verticalAlign=bottom;endArrow=open;endSize=8;strokeColor=#ff0000;rounded=0;" edge="1" parent="1">
          <mxGeometry relative="1" as="geometry">
            <mxPoint x="190" y="1820" as="targetPoint" />
            <mxPoint x="189.5" y="1780" as="sourcePoint" />
          </mxGeometry>
        </mxCell>
      </root>
    </mxGraphModel>
  </diagram>
</mxfile>
